<?xml version="1.0" encoding="utf-8"?>
<!-- Generator: Adobe Illustrator 24.2.3, SVG Export Plug-In . SVG Version: 6.00 Build 0)  -->
<svg version="1.1" id="Layer_1" xmlns="http://www.w3.org/2000/svg" xmlns:xlink="http://www.w3.org/1999/xlink" x="0px" y="0px"
     viewBox="0 0 640 480" style="enable-background:new 0 0 640 480;" xml:space="preserve">
<style type="text/css">
	.st0{fill:url(#SVGID_1_);stroke:url(#SVGID_2_);stroke-miterlimit:10;}
	.st1{fill:#6FC499;}
	.st2{fill:#ACDAC3;}
	.st3{fill:url(#SVGID_3_);stroke:url(#SVGID_4_);stroke-miterlimit:10;}
	.st4{fill:url(#SVGID_5_);stroke:url(#SVGID_6_);stroke-miterlimit:10;}
	.st5{fill:url(#SVGID_7_);stroke:url(#SVGID_8_);stroke-miterlimit:10;}
	.st6{fill:url(#SVGID_9_);stroke:url(#SVGID_10_);stroke-miterlimit:10;}
	.st7{fill:url(#SVGID_11_);}
	.st8{fill:url(#SVGID_12_);}
	.st9{fill:url(#SVGID_13_);}
	.st10{fill:url(#SVGID_14_);}
	.st11{fill:url(#SVGID_15_);}
	.st12{fill:url(#SVGID_16_);}
	.st13{fill:url(#SVGID_17_);}
	.st14{fill:url(#SVGID_18_);}
	.st15{fill:url(#SVGID_19_);}
	.st16{fill:url(#SVGID_20_);}
	.st17{fill:url(#SVGID_21_);}
	.st18{fill:url(#SVGID_22_);}
	.st19{fill:url(#SVGID_23_);}
</style>
    <linearGradient id="SVGID_1_" gradientUnits="userSpaceOnUse" x1="326.8962" y1="165.5869" x2="326.8962" y2="165.5869">
	<stop  offset="0" style="stop-color:#FFFFFF"/>
        <stop  offset="0.1056" style="stop-color:#F9FCF5"/>
        <stop  offset="0.2829" style="stop-color:#E9F4DB"/>
        <stop  offset="0.51" style="stop-color:#CEE7B1"/>
        <stop  offset="0.7752" style="stop-color:#AAD577"/>
        <stop  offset="1" style="stop-color:#88C440"/>
</linearGradient>
    <linearGradient id="SVGID_2_" gradientUnits="userSpaceOnUse" x1="326.8962" y1="165.5869" x2="326.8962" y2="165.5869">
	<stop  offset="0" style="stop-color:#FFFFFF"/>
        <stop  offset="1" style="stop-color:#04596A"/>
</linearGradient>
    <path class="st0" d="M326.9,165.59"/>
    <path class="st1" d="M231.96,92.2c11.16-0.05,22.31-0.11,33.47-0.16c-38.85,66.2-77.71,132.41-116.56,198.61
	c-10.67,0-21.34,0.01-32.01,0.01c19.47-33.37,38.89-66.77,58.27-100.19C194.12,157.73,213.07,124.97,231.96,92.2z"/>
    <path class="st2" d="M183.83,92.07c10.98,0,21.96-0.01,32.94-0.01c-39.07,66.2-78.14,132.41-117.21,198.61
	c-11.05,0-22.11,0.01-33.16,0.01c19.96-33.08,39.92-66.48,59.86-100.21C145.75,157.5,164.94,124.7,183.83,92.07z"/>
    <linearGradient id="SVGID_3_" gradientUnits="userSpaceOnUse" x1="246.3539" y1="165.5869" x2="246.3539" y2="165.5869">
	<stop  offset="0" style="stop-color:#FFFFFF"/>
        <stop  offset="0.1056" style="stop-color:#F9FCF5"/>
        <stop  offset="0.2829" style="stop-color:#E9F4DB"/>
        <stop  offset="0.51" style="stop-color:#CEE7B1"/>
        <stop  offset="0.7752" style="stop-color:#AAD577"/>
        <stop  offset="1" style="stop-color:#88C440"/>
</linearGradient>
    <linearGradient id="SVGID_4_" gradientUnits="userSpaceOnUse" x1="246.3539" y1="165.5869" x2="246.3539" y2="165.5869">
	<stop  offset="0" style="stop-color:#FFFFFF"/>
        <stop  offset="1" style="stop-color:#04596A"/>
</linearGradient>
    <path class="st3" d="M246.35,165.59"/>
    <linearGradient id="SVGID_5_" gradientUnits="userSpaceOnUse" x1="125.8289" y1="270.0811" x2="125.8289" y2="270.0811">
	<stop  offset="0" style="stop-color:#FFFFFF"/>
        <stop  offset="0.1056" style="stop-color:#F9FCF5"/>
        <stop  offset="0.2829" style="stop-color:#E9F4DB"/>
        <stop  offset="0.51" style="stop-color:#CEE7B1"/>
        <stop  offset="0.7752" style="stop-color:#AAD577"/>
        <stop  offset="1" style="stop-color:#88C440"/>
</linearGradient>
    <linearGradient id="SVGID_6_" gradientUnits="userSpaceOnUse" x1="125.8289" y1="270.0811" x2="125.8289" y2="270.0811">
	<stop  offset="0" style="stop-color:#FFFFFF"/>
        <stop  offset="1" style="stop-color:#04596A"/>
</linearGradient>
    <path class="st4" d="M125.83,270.08"/>
    <linearGradient id="SVGID_7_" gradientUnits="userSpaceOnUse" x1="415.9193" y1="293.1185" x2="415.9193" y2="293.1185">
	<stop  offset="0" style="stop-color:#FFFFFF"/>
        <stop  offset="0.1056" style="stop-color:#F9FCF5"/>
        <stop  offset="0.2829" style="stop-color:#E9F4DB"/>
        <stop  offset="0.51" style="stop-color:#CEE7B1"/>
        <stop  offset="0.7752" style="stop-color:#AAD577"/>
        <stop  offset="1" style="stop-color:#88C440"/>
</linearGradient>
    <linearGradient id="SVGID_8_" gradientUnits="userSpaceOnUse" x1="415.9193" y1="293.1185" x2="415.9193" y2="293.1185">
	<stop  offset="0" style="stop-color:#FFFFFF"/>
        <stop  offset="1" style="stop-color:#04596A"/>
</linearGradient>
    <path class="st5" d="M415.92,293.12"/>
    <linearGradient id="SVGID_9_" gradientUnits="userSpaceOnUse" x1="415.9193" y1="293.1185" x2="415.9193" y2="293.1185">
	<stop  offset="0" style="stop-color:#FFFFFF"/>
        <stop  offset="0.1056" style="stop-color:#F9FCF5"/>
        <stop  offset="0.2829" style="stop-color:#E9F4DB"/>
        <stop  offset="0.51" style="stop-color:#CEE7B1"/>
        <stop  offset="0.7752" style="stop-color:#AAD577"/>
        <stop  offset="1" style="stop-color:#88C440"/>
</linearGradient>
    <linearGradient id="SVGID_10_" gradientUnits="userSpaceOnUse" x1="415.9193" y1="293.1185" x2="415.9193" y2="293.1185">
	<stop  offset="0" style="stop-color:#FFFFFF"/>
        <stop  offset="1" style="stop-color:#04596A"/>
</linearGradient>
    <path class="st6" d="M415.92,293.12"/>
    <linearGradient id="SVGID_11_" gradientUnits="userSpaceOnUse" x1="166.2077" y1="191.3612" x2="600.5659" y2="191.3612">
	<stop  offset="0.3367" style="stop-color:#36B672"/>
        <stop  offset="1" style="stop-color:#1D8140"/>
</linearGradient>
    <path class="st7" d="M442.12,92.01c-13.32,0.01-45.04,0.03-58.36,0.04c-16.89,29.16-33.83,58.28-50.77,87.44
	c-13.15-0.28-26.29-0.61-39.48-0.89c16.71-28.88,33.47-57.72,50.19-86.59c-20.73,0-41.47,0-62.2,0.04
	c-38.44,66.2-76.84,132.43-115.28,198.67c20.82-0.04,41.6-0.08,62.38-0.12c15.81-27.26,31.62-54.56,47.43-81.83
	c13.19,0.28,26.34,0.57,39.53,0.81c-15.68,27.02-31.35,54.08-47.07,81.14c15.63-0.04,31.3-0.08,46.93-0.08
	c39.89,0.04,79.73,0.04,119.62,0.08h1.58c39.96-3.33,68.73-25.11,71.06-48.3c1.93-19.31-14.88-35.33-18-38.31
	c-15.47-14.74-35.39-18.25-53.83-21.49c-17.13-3.02-31.61-2.85-41.08-2.24c1.08-1.86,5.58-9.63,6.66-11.5
	c3.95-6.82,10.06-17.38,14.01-24.21c51.51-0.02,103.03-0.04,154.54-0.06c5.18-8.84,10.36-17.71,15.54-26.61
	c5.04-8.67,10.06-17.32,15.06-25.96C547.74,92,494.93,91.99,442.12,92.01z M405.81,209.83c23.67,0,42.86,10.48,42.86,23.41
	c0,12.85-18.95,23.3-42.4,23.43h-0.94c-1.39,0-34.3-0.02-35.69-0.02c-0.41,0-18.9-0.01-19.31-0.01
	c8.72-15.59,17.44-31.17,26.15-46.76C386.27,209.87,396.03,209.85,405.81,209.83z"/>
    <g>
	<g>
		<linearGradient id="SVGID_12_" gradientUnits="userSpaceOnUse" x1="56.5581" y1="341.7666" x2="576.9775" y2="341.7666">
			<stop  offset="0" style="stop-color:#70C49A"/>
            <stop  offset="0.2566" style="stop-color:#5FB687"/>
            <stop  offset="0.7727" style="stop-color:#329257"/>
            <stop  offset="1" style="stop-color:#1D8140"/>
		</linearGradient>
        <path class="st8" d="M56.56,313.43h9.43v19.1h21.5v-19.1h9.43v47.54h-9.43v-21.08h-21.5v21.08h-9.43V313.43z"/>
        <linearGradient id="SVGID_13_" gradientUnits="userSpaceOnUse" x1="56.5581" y1="341.7666" x2="576.9775" y2="341.7666">
			<stop  offset="0" style="stop-color:#70C49A"/>
            <stop  offset="0.2566" style="stop-color:#5FB687"/>
            <stop  offset="0.7727" style="stop-color:#329257"/>
            <stop  offset="1" style="stop-color:#1D8140"/>
		</linearGradient>
        <path class="st9" d="M107.02,343.15c0-11.89,9.04-18.75,19-18.75c9.95,0,19,6.86,19,18.75c0,11.83-9.04,18.7-19,18.7
			C116.06,361.84,107.02,354.98,107.02,343.15z M135.38,343.15c0-7.15-3.51-11.92-9.37-11.92s-9.37,4.77-9.37,11.92
			s3.51,11.86,9.37,11.86S135.38,350.3,135.38,343.15z"/>
        <linearGradient id="SVGID_14_" gradientUnits="userSpaceOnUse" x1="56.5581" y1="341.7666" x2="576.9775" y2="341.7666">
			<stop  offset="0" style="stop-color:#70C49A"/>
            <stop  offset="0.2566" style="stop-color:#5FB687"/>
            <stop  offset="0.7727" style="stop-color:#329257"/>
            <stop  offset="1" style="stop-color:#1D8140"/>
		</linearGradient>
        <path class="st10" d="M154.29,325.26h10.73l6.41,14.42c1.11,2.94,2.18,5.64,3.19,8.34h0.33c1.07-2.7,2.23-5.41,3.25-8.34
			l6.1-14.42h10.68v35.71h-8.39v-12.5c0-3.5,0.65-10.03,1.01-13.9h-0.33c-1.14,3-2.67,6.4-3.81,9.25l-6.05,13.93h-5.5l-6.21-13.93
			c-1.14-2.85-2.67-6.34-3.81-9.25h-0.33c0.36,3.87,1.01,10.4,1.01,13.9v12.5h-8.29V325.26z"/>
        <linearGradient id="SVGID_15_" gradientUnits="userSpaceOnUse" x1="56.5581" y1="341.7666" x2="576.9775" y2="341.7666">
			<stop  offset="0" style="stop-color:#70C49A"/>
            <stop  offset="0.2566" style="stop-color:#5FB687"/>
            <stop  offset="0.7727" style="stop-color:#329257"/>
            <stop  offset="1" style="stop-color:#1D8140"/>
		</linearGradient>
        <path class="st11" d="M204.33,374.9l1.72-6.48c0.76,0.2,1.92,0.5,2.86,0.5c4.2,0,6.64-2.56,7.97-6.14l0.75-2.24l-15.71-35.27h9.5
			l6.9,17.5c1.2,3.17,2.34,6.69,3.51,10.09h0.33c1.01-3.32,2.02-6.83,3.06-10.09l5.95-17.5h9.04l-14.44,37.33
			c-3.32,8.04-7.51,13.03-16.23,13.03C207.36,375.63,205.79,375.34,204.33,374.9z"/>
        <linearGradient id="SVGID_16_" gradientUnits="userSpaceOnUse" x1="56.5581" y1="341.7666" x2="576.9775" y2="341.7666">
			<stop  offset="0" style="stop-color:#70C49A"/>
            <stop  offset="0.2566" style="stop-color:#5FB687"/>
            <stop  offset="0.7727" style="stop-color:#329257"/>
            <stop  offset="1" style="stop-color:#1D8140"/>
		</linearGradient>
        <path class="st12" d="M244.58,374.9l1.72-6.48c0.76,0.2,1.92,0.5,2.86,0.5c4.2,0,6.64-2.56,7.97-6.14l0.75-2.24l-15.71-35.27h9.5
			l6.9,17.5c1.2,3.17,2.34,6.69,3.51,10.09h0.33c1.01-3.32,2.02-6.83,3.06-10.09l5.95-17.5h9.04l-14.44,37.33
			c-3.32,8.04-7.51,13.03-16.23,13.03C247.6,375.63,246.04,375.34,244.58,374.9z"/>
        <linearGradient id="SVGID_17_" gradientUnits="userSpaceOnUse" x1="56.5581" y1="341.7666" x2="576.9775" y2="341.7666">
			<stop  offset="0" style="stop-color:#70C49A"/>
            <stop  offset="0.2566" style="stop-color:#5FB687"/>
            <stop  offset="0.7727" style="stop-color:#329257"/>
            <stop  offset="1" style="stop-color:#1D8140"/>
		</linearGradient>
        <path class="st13" d="M287.4,325.26h9.37v13.67h15.9v-13.67h9.37v35.71h-9.37v-14.68h-15.9v14.68h-9.37V325.26z"/>
        <linearGradient id="SVGID_18_" gradientUnits="userSpaceOnUse" x1="56.5581" y1="341.7666" x2="576.9775" y2="341.7666">
			<stop  offset="0" style="stop-color:#70C49A"/>
            <stop  offset="0.2566" style="stop-color:#5FB687"/>
            <stop  offset="0.7727" style="stop-color:#329257"/>
            <stop  offset="1" style="stop-color:#1D8140"/>
		</linearGradient>
        <path class="st14" d="M331.83,338.99c0-22.77,10.08-27.1,25.11-29.02c4.65-0.58,6.47-1.05,8.94-2.06l1.82,7.39
			c-2.11,1.37-5.33,2.06-8.81,2.5c-14.51,1.83-18.08,2.47-18.08,23.03c0,9.25,3.61,14.19,10.25,14.19c5.24,0,8.62-4.59,8.62-11.57
			c0-6.86-3.2-10.34-8.73-10.34c-3.3,0-6.93,1.37-10.2,5.48l-0.39-5.67c3.15-3.98,8.1-6.08,13.24-6.08c8.91,0,15.71,5.9,15.71,16.6
			c0,11.17-7.9,18.41-18.15,18.41C338.82,361.84,331.83,353.5,331.83,338.99z"/>
        <linearGradient id="SVGID_19_" gradientUnits="userSpaceOnUse" x1="56.5581" y1="341.7666" x2="576.9775" y2="341.7666">
			<stop  offset="0" style="stop-color:#70C49A"/>
            <stop  offset="0.2566" style="stop-color:#5FB687"/>
            <stop  offset="0.7727" style="stop-color:#329257"/>
            <stop  offset="1" style="stop-color:#1D8140"/>
		</linearGradient>
        <path class="st15" d="M376.73,351.38c0-7.65,7.09-11.63,23.48-13.2c-0.13-3.84-1.85-7.04-7.25-7.04c-3.97,0-7.71,1.6-11.22,3.52
			l-3.45-5.58c4.39-2.47,10.05-4.68,16.39-4.68c9.99,0,14.9,5.5,14.9,15.44v21.14h-7.68l-0.72-3.95h-0.26
			c-3.58,2.73-7.68,4.83-12.39,4.83C381.54,361.84,376.73,357.6,376.73,351.38z M400.21,351.41v-8.03
			c-10.83,1.22-14.44,3.75-14.44,7.36c0,3.16,2.41,4.54,5.76,4.54C394.78,355.27,397.25,353.85,400.21,351.41z"/>
        <linearGradient id="SVGID_20_" gradientUnits="userSpaceOnUse" x1="56.5581" y1="341.7666" x2="576.9775" y2="341.7666">
			<stop  offset="0" style="stop-color:#70C49A"/>
            <stop  offset="0.2566" style="stop-color:#5FB687"/>
            <stop  offset="0.7727" style="stop-color:#329257"/>
            <stop  offset="1" style="stop-color:#1D8140"/>
		</linearGradient>
        <path class="st16" d="M430.44,343.73l7.72,2.36l-10.91,14.89h-10.49L430.44,343.73z M442.62,348.15h-5.89
			c-7.9,0-16.56-3.26-16.56-11.66s7.09-11.22,16.18-11.22h15.63v35.71h-9.37V348.15z M442.62,342.32v-10.79h-4.96
			c-5.24,0-8.2,1.63-8.2,5.18c0,3.5,2.96,5.61,8.2,5.61H442.62z"/>
        <linearGradient id="SVGID_21_" gradientUnits="userSpaceOnUse" x1="56.5581" y1="341.7666" x2="576.9775" y2="341.7666">
			<stop  offset="0" style="stop-color:#70C49A"/>
            <stop  offset="0.2566" style="stop-color:#5FB687"/>
            <stop  offset="0.7727" style="stop-color:#329257"/>
            <stop  offset="1" style="stop-color:#1D8140"/>
		</linearGradient>
        <path class="st17" d="M458.62,361.15l1.63-7.59c0.59,0.15,1.17,0.29,1.92,0.29c2.47,0,4.18-1.86,4.8-6.41
			c1.06-7.37,1.95-14.76,2.91-22.17h27.06v35.71h-9.37v-29.05h-10.28c-0.78,5.87-1.56,11.89-2.44,17.77
			c-1.22,7.97-5.2,12.15-12.02,12.15C461.16,361.84,459.92,361.61,458.62,361.15z"/>
        <linearGradient id="SVGID_22_" gradientUnits="userSpaceOnUse" x1="56.5581" y1="341.7666" x2="576.9775" y2="341.7666">
			<stop  offset="0" style="stop-color:#70C49A"/>
            <stop  offset="0.2566" style="stop-color:#5FB687"/>
            <stop  offset="0.7727" style="stop-color:#329257"/>
            <stop  offset="1" style="stop-color:#1D8140"/>
		</linearGradient>
        <path class="st18" d="M506.66,351.38c0-7.65,7.09-11.63,23.48-13.2c-0.13-3.84-1.85-7.04-7.25-7.04c-3.97,0-7.71,1.6-11.22,3.52
			l-3.45-5.58c4.39-2.47,10.05-4.68,16.39-4.68c9.99,0,14.9,5.5,14.9,15.44v21.14h-7.68l-0.72-3.95h-0.26
			c-3.58,2.73-7.68,4.83-12.39,4.83C511.47,361.84,506.66,357.6,506.66,351.38z M530.14,351.41v-8.03
			c-10.83,1.22-14.44,3.75-14.44,7.36c0,3.16,2.41,4.54,5.76,4.54C524.71,355.27,527.18,353.85,530.14,351.41z"/>
        <linearGradient id="SVGID_23_" gradientUnits="userSpaceOnUse" x1="56.5581" y1="341.7666" x2="576.9775" y2="341.7666">
			<stop  offset="0" style="stop-color:#70C49A"/>
            <stop  offset="0.2566" style="stop-color:#5FB687"/>
            <stop  offset="0.7727" style="stop-color:#329257"/>
            <stop  offset="1" style="stop-color:#1D8140"/>
		</linearGradient>
        <path class="st19" d="M550.76,325.26h26.22v6.66h-16.85v29.05h-9.37V325.26z"/>
	</g>
</g>
</svg>
